<svg xmlns="http://www.w3.org/2000/svg" version="1.1" xmlns:xlink="http://www.w3.org/1999/xlink" xmlns:svgjs="http://svgjs.dev/svgjs" width="2000" height="1952" viewBox="0 0 2000 1952"><g transform="matrix(1,0,0,1,-1.1725369357324098,0.7917427537836375)"><svg viewBox="0 0 253 247" data-background-color="#ffffff" preserveAspectRatio="xMidYMid meet" height="1952" width="2000" xmlns="http://www.w3.org/2000/svg" xmlns:xlink="http://www.w3.org/1999/xlink"><g id="tight-bounds" transform="matrix(1,0,0,1,0.14853805747884508,-0.09997365579206985)"><svg viewBox="0 0 252.70313109083008 247.2" height="247.2" width="252.70313109083008"><g><svg viewBox="0 0 252.70313109083008 247.2" height="247.2" width="252.70313109083008"><g><svg viewBox="0 0 252.70313109083008 247.2" height="247.2" width="252.70313109083008"><g id="textblocktransform"><svg viewBox="0 0 252.70313109083008 247.2" height="247.2" width="252.70313109083008" id="textblock"><g><svg viewBox="0 0 252.70313109083008 247.2" height="247.2" width="252.70313109083008"><path d="M252.112 53.02C250.923 27.36 247.538 20.227 247.538 20.227 237.143-6.202 224.169-0.506 212.515 3.292 191.939 3.446 171.446 9.091 150.917 12.119 107.827 12.581 64.37 4.986 21.495 23.717 17.467 29.464-4.178 24.846 0.716 56.304 1.999 69.39 6.68 83.913 6.538 95.922 7.179 98.026 8.07 93.202 8.45 96.23 9.781 104.39 11.955 100.541 13.737 105.365 11.254 118.246 13.036 128.971 14.735 140.21 11.741 143.135 7.904 141.749 6.181 151.449 6.003 158.479 5.041 157.145 3.983 156.837 3.211 156.632 1.655 157.402 1.916 159.608 2.807 167.152-1.018 171.514 1.382 178.904-0.27 186.91 2.522 193.838 2.142 202.511 2.094 204.255 2.356 205.744 2.772 206.154 4.613 208.361 1.928 212.672 2.213 217.342 21.103 249.262 41.596 227.195 60.949 241.872 65.974 231.608 62.196 245.516 64.204 243.36 65.772 240.846 66.912 251.263 68.683 245.362 68.956 243.668 68.54 239.665 69.514 240.435 70.025 240.846 70.476 240.743 70.548 238.382 70.655 234.841 69.716 237.048 69.467 235.201 72.163 225.861 71.498 248.081 74.029 247.158 73.91 244.438 73.173 240.538 74.682 241.051 76.179 237.151 76.226 233.918 77.557 242.693 77.604 244.592 77.842 245.926 78.222 246.85 82.38 237.305 86.515 250.237 90.875 245.926 93.548 241.205 96.114 248.492 98.822 246.696 99.773 245.259 100.735 242.693 101.65 247.004 112.853 247.928 124.792 244.079 135.413 247.158 163.795 241.41 194.125 249.518 224.051 241.923 231.107 238.998 238.437 234.841 245.316 231.506 245.316 231.506 250.888 222.371 250.888 181.316S252.076 145.393 252.254 112.703C252.432 80.013 253.264 78.679 252.076 53.02Z" opacity="1" fill="#8749e6" data-fill-palette-color="tertiary"></path><g transform="matrix(1,0,0,1,55.76832,26.230666666666668)"><svg width="141.16649109083008" viewBox="2.2 -37.93 27.8 38.36" height="194.73866666666666" data-palette-color="#ffffff"><path d="M30-20.13L30-4.93Q28.98-3.8 27.7-2.81 26.43-1.83 24.9-1.11 23.38-0.4 21.58 0.01 19.78 0.43 17.7 0.43L17.7 0.43Q14.1 0.43 11.23-1.14 8.35-2.7 6.34-5.38 4.33-8.05 3.26-11.63 2.2-15.2 2.2-19.25L2.2-19.25Q2.2-23.03 3.16-26.41 4.13-29.8 6.11-32.36 8.1-34.93 11.13-36.43 14.15-37.93 18.28-37.93L18.28-37.93Q21.15-37.93 23.71-37.01 26.28-36.1 28.08-34.38L28.08-34.38 25.83-31.7Q24.63-32.5 22.81-33.1 21-33.7 18.68-33.7L18.68-33.7Q15.63-33.7 13.5-32.55 11.38-31.4 10.03-29.44 8.68-27.48 8.06-24.86 7.45-22.25 7.45-19.33L7.45-19.33Q7.45-17.6 7.73-15.79 8-13.98 8.56-12.25 9.13-10.53 10.01-9 10.9-7.48 12.11-6.33 13.33-5.18 14.88-4.5 16.43-3.83 18.35-3.83L18.35-3.83Q19.48-3.83 20.53-4.06 21.58-4.3 22.48-4.67 23.38-5.05 24.09-5.51 24.8-5.98 25.25-6.45L25.25-6.45 25.25-16.13 17.5-16.63 17.5-20.13 30-20.13Z" opacity="1" transform="matrix(1,0,0,1,0,0)" fill="#ffffff" class="wordmark-text-0" data-fill-palette-color="quaternary" id="text-0"></path></svg></g></svg></g></svg></g></svg></g><g></g></svg></g><defs></defs></svg><rect width="252.70313109083008" height="247.2" fill="none" stroke="none" visibility="hidden"></rect></g></svg></g></svg>